<?xml version="1.0" encoding="UTF-8"?>
<!-- Created with Inkscape (http://www.inkscape.org/) -->

<svg baseProfile="tiny-ps" width="512" height="512" viewBox="0 0 512 512" version="1.2" id="svg1" xml:space="preserve" inkscape:version="1.3 (0e150ed6c4, 2023-07-21)" sodipodi:docname="talkly_email_bimi.svg" xmlns:inkscape="http://www.inkscape.org/namespaces/inkscape" xmlns:sodipodi="http://sodipodi.sourceforge.net/DTD/sodipodi-0.dtd" xmlns="http://www.w3.org/2000/svg" xmlns:svg="http://www.w3.org/2000/svg">
  <title>talkly.it</title>
  <sodipodi:namedview id="namedview1" pagecolor="#ffffff" bordercolor="#000000" borderopacity="0.25" inkscape:showpageshadow="2" inkscape:pageopacity="0.0" inkscape:pagecheckerboard="0" inkscape:deskcolor="#d1d1d1" inkscape:document-units="px" inkscape:zoom="1.1228082" inkscape:cx="128.69517" inkscape:cy="218.6482" inkscape:window-width="1920" inkscape:window-height="1009" inkscape:window-x="-8" inkscape:window-y="64" inkscape:window-maximized="1" inkscape:current-layer="layer1" />
  <defs id="defs1">
    <style id="style1">.cls-1{fill:#b48dff;}</style>
  </defs>
  <g inkscape:label="Strat 1" inkscape:groupmode="layer" id="layer1">
    <rect style="fill:#ffffff;stroke-width:1.0037;fill-opacity:1" id="rect1" width="512.62976" height="514.51904" x="2.4486988e-08" y="-0.62976629" />
    <g id="Layer_1-2" transform="matrix(2,0,0,2,72.01,72.01)">
      <path id="path1" class="cls-1" d="m 131.62,13.05 c 21.69,0 39.33,17.64 39.33,39.33 v 79.23 c 0,21.69 -17.64,39.33 -39.33,39.33 H 52.38 c -21.69,0 -39.33,-17.64 -39.33,-39.33 V 52.38 c 0,-21.69 17.64,-39.33 39.33,-39.33 h 79.23 M 131.61,0 H 52.38 C 23.57,0 0,23.57 0,52.38 v 79.23 c 0,28.81 23.57,52.38 52.38,52.38 h 79.23 c 28.81,0 52.38,-23.57 52.38,-52.38 V 52.38 C 183.99,23.57 160.42,0 131.61,0 Z"/>
      <path id="path2" class="cls-1" d="m 30.56,152.74 c 0.25,-0.65 0.54,-1.29 0.74,-1.95 1.6,-5.35 3.18,-10.7 4.78,-16.04 0.72,-2.39 2.79,-3.44 4.55,-2.19 0.65,0.47 1.18,1.32 1.43,2.1 1.18,3.67 2.24,7.38 3.43,11.36 0.32,-1 0.58,-1.74 0.8,-2.49 0.86,-2.9 1.71,-5.8 2.57,-8.69 0.56,-1.88 1.61,-2.8 3.1,-2.78 1.46,0.02 2.44,0.91 3,2.74 0.97,3.21 1.92,6.43 2.88,9.65 0.12,0.39 0.25,0.77 0.5,1.52 0.24,-0.74 0.38,-1.15 0.51,-1.56 0.93,-3.14 1.86,-6.28 2.79,-9.41 0.1,-0.32 0.19,-0.64 0.32,-0.95 0.51,-1.25 1.46,-1.93 2.79,-1.97 1.31,-0.04 2.4,0.78 2.86,2.23 0.96,3.08 1.86,6.19 2.78,9.28 0.2,0.67 0.42,1.35 0.73,2.33 0.23,-0.63 0.39,-0.97 0.49,-1.33 0.99,-3.3 1.96,-6.6 2.96,-9.89 0.53,-1.76 1.51,-2.61 2.94,-2.63 1.46,-0.03 2.53,0.88 3.07,2.66 0.96,3.17 1.88,6.36 2.83,9.53 0.15,0.51 0.33,1.02 0.59,1.79 1.2,-4.02 2.29,-7.76 3.42,-11.49 0.63,-2.07 2.5,-3.12 4.12,-2.16 0.8,0.48 1.48,1.46 1.82,2.37 0.88,2.35 1.45,4.82 2.32,7.18 2.09,5.65 7.45,9.33 13.66,9.53 5.7,0.18 11.42,-3.47 13.8,-8.8 0.03,-0.07 0.02,-0.16 0.03,-0.37 -1.33,-0.34 -2.7,-0.64 -4.03,-1.05 -6.9,-2.12 -12.89,-5.9 -18.35,-10.52 -3.19,-2.7 -6.24,-5.59 -9.19,-8.55 -10.87,-10.93 -21.76,-21.84 -32.48,-32.93 -5.8,-6 -10.6,-12.78 -13.49,-20.73 -4.05,-11.15 -2.3,-21.35 5.3,-30.41 2.47,-2.95 5.21,-5.68 7.99,-8.35 4.19,-4.03 9.5,-4.29 14.24,-0.83 3.86,2.82 6.98,6.4 9.72,10.27 2.3,3.24 4.41,6.62 6.41,10.06 1.07,1.84 1.23,4 0.8,6.13 -0.35,1.75 -1.34,3.1 -2.72,4.25 -2.21,1.85 -4.59,3.6 -6.43,5.79 -3.23,3.85 -3.71,8.15 -0.28,12.36 0.56,0.68 1.16,1.32 1.78,1.95 7.84,7.92 15.69,15.83 23.54,23.74 1.6,1.62 3.28,3.18 5.51,3.8 3.41,0.95 6.4,-0.18 8.86,-2.48 1.92,-1.79 3.76,-3.76 5.23,-5.93 2.2,-3.22 6.18,-4.1 9.56,-2.7 2.4,1 4.66,2.41 6.85,3.85 4.79,3.17 9.29,6.71 13.06,11.11 2.65,3.08 4.44,6.51 3.36,10.71 -0.41,1.61 -1.16,3.33 -2.25,4.54 -3.85,4.25 -7.74,8.49 -12.62,11.62 -4.49,2.89 -9.36,4.57 -14.71,4.63 -0.84,0 -1.23,0.29 -1.56,1.05 -2.9,6.74 -8,10.66 -15.17,11.88 -0.15,0.03 -0.29,0.13 -0.43,0.2 h -4.26 c -0.15,-0.07 -0.29,-0.17 -0.44,-0.2 -8.29,-1.43 -13.61,-6.25 -16.1,-14.31 -0.13,-0.42 -0.28,-0.83 -0.54,-1.57 -1.18,3.96 -2.25,7.56 -3.33,11.16 -0.58,1.92 -1.58,2.78 -3.1,2.75 -1.48,-0.03 -2.44,-0.89 -2.99,-2.74 -0.88,-2.93 -1.73,-5.88 -2.61,-8.81 -0.21,-0.71 -0.46,-1.41 -0.77,-2.37 -0.44,1.45 -0.79,2.61 -1.14,3.77 -0.76,2.53 -1.5,5.07 -2.27,7.6 -0.52,1.72 -1.54,2.55 -3,2.54 -1.46,-0.01 -2.45,-0.87 -2.99,-2.57 -0.11,-0.36 -0.2,-0.73 -0.31,-1.09 -0.99,-3.33 -1.99,-6.66 -3.07,-10.26 -0.21,0.62 -0.33,0.96 -0.43,1.3 -1.01,3.38 -2,6.76 -3.03,10.13 -0.5,1.63 -1.52,2.46 -2.93,2.48 -1.47,0.02 -2.49,-0.81 -3.03,-2.51 -0.28,-0.88 -0.52,-1.77 -0.79,-2.66 -0.84,-2.82 -1.69,-5.63 -2.62,-8.71 -0.2,0.56 -0.31,0.82 -0.39,1.1 -1.01,3.38 -2,6.76 -3.02,10.13 -0.54,1.78 -1.58,2.67 -3.06,2.66 -1.44,-0.01 -2.42,-0.85 -2.96,-2.6 -0.68,-2.21 -1.32,-4.42 -1.98,-6.63 -0.43,-1.45 -0.88,-2.89 -1.42,-4.67 -0.25,0.74 -0.4,1.12 -0.52,1.51 -1.19,4.02 -2.33,8.06 -3.61,12.06 -0.3,0.92 -1.11,1.67 -1.68,2.5 h -2.75 c 0,-1.01 0,-2.02 0,-3.03 z" />
    </g>
  </g>
</svg>
